HIERARCHY
ROOT Hips
{
  OFFSET -43.3411 73.6987 0
  CHANNELS 6 Xposition Yposition Zposition Zrotation Xrotation Yrotation
  JOINT Bip01_Pelvis
  {
    OFFSET 0 0 0
    CHANNELS 6 Xposition Yposition Zposition Zrotation Xrotation Yrotation
    JOINT BN_Tail_01
    {
      OFFSET -18.6385 -9.591 -2.032e-005
      CHANNELS 6 Xposition Yposition Zposition Zrotation Xrotation Yrotation
      JOINT BN_Tail_02
      {
        OFFSET 20.9743 0 0
        CHANNELS 6 Xposition Yposition Zposition Zrotation Xrotation Yrotation
        JOINT BN_Tail_03
        {
          OFFSET 20.3015 0 0
          CHANNELS 6 Xposition Yposition Zposition Zrotation Xrotation Yrotation
          JOINT BN_Tail_04
          {
            OFFSET 21.6394 -9.91821e-005 0
            CHANNELS 6 Xposition Yposition Zposition Zrotation Xrotation Yrotation
            End Site
            {
              OFFSET 0 0 0
            }
          }
        }
      }
    }
    JOINT Bip01_Spine
    {
      OFFSET 22.1878 -0.659386 3.048e-005
      CHANNELS 6 Xposition Yposition Zposition Zrotation Xrotation Yrotation
      JOINT Bip01_R_Thigh
      {
        OFFSET -22.1873 0.677109 -17.1024
        CHANNELS 6 Xposition Yposition Zposition Zrotation Xrotation Yrotation
        JOINT Bip01_R_Calf
        {
          OFFSET 34.2647 0 0
          CHANNELS 6 Xposition Yposition Zposition Zrotation Xrotation Yrotation
          JOINT Bip01_R_HorseLink
          {
            OFFSET 20.4429 0 0
            CHANNELS 6 Xposition Yposition Zposition Zrotation Xrotation Yrotation
            JOINT Bip01_R_Foot
            {
              OFFSET 16.5673 0 0
              CHANNELS 6 Xposition Yposition Zposition Zrotation Xrotation Yrotation
              JOINT Bip01_R_Toe0
              {
                OFFSET 9.18784 6.94841 0
                CHANNELS 6 Xposition Yposition Zposition Zrotation Xrotation Yrotation
                JOINT Bip01_R_Toe0Nub
                {
                  OFFSET 1.01907 0 0
                  CHANNELS 6 Xposition Yposition Zposition Zrotation Xrotation Yrotation
                  End Site
                  {
                    OFFSET 0 0 0
                  }
                }
              }
            }
          }
        }
      }
      JOINT Bip01_L_Thigh
      {
        OFFSET -22.1873 0.67701 17.1024
        CHANNELS 6 Xposition Yposition Zposition Zrotation Xrotation Yrotation
        JOINT Bip01_L_Calf
        {
          OFFSET 34.2647 0 0
          CHANNELS 6 Xposition Yposition Zposition Zrotation Xrotation Yrotation
          JOINT Bip01_L_HorseLink
          {
            OFFSET 20.4429 0 0
            CHANNELS 6 Xposition Yposition Zposition Zrotation Xrotation Yrotation
            JOINT Bip01_L_Foot
            {
              OFFSET 16.5673 0 0
              CHANNELS 6 Xposition Yposition Zposition Zrotation Xrotation Yrotation
              JOINT Bip01_L_Toe0
              {
                OFFSET 9.18784 6.9484 1.14441e-005
                CHANNELS 6 Xposition Yposition Zposition Zrotation Xrotation Yrotation
                JOINT Bip01_L_Toe0Nub
                {
                  OFFSET 1.01907 0 0
                  CHANNELS 6 Xposition Yposition Zposition Zrotation Xrotation Yrotation
                  End Site
                  {
                    OFFSET 0 0 0
                  }
                }
              }
            }
          }
        }
      }
      JOINT Bip01_Spine1
      {
        OFFSET 39.3372 -0.0249863 0
        CHANNELS 6 Xposition Yposition Zposition Zrotation Xrotation Yrotation
        JOINT Bip01_Neck
        {
          OFFSET 34.2837 -15.5934 -4.318e-005
          CHANNELS 6 Xposition Yposition Zposition Zrotation Xrotation Yrotation
          JOINT Bip01_R_Clavicle
          {
            OFFSET -17.9452 -11.3131 -6.19287
            CHANNELS 6 Xposition Yposition Zposition Zrotation Xrotation Yrotation
            JOINT Bip01_R_UpperArm
            {
              OFFSET 17.4439 1.52588e-005 -2.28882e-005
              CHANNELS 6 Xposition Yposition Zposition Zrotation Xrotation Yrotation
              JOINT Bip01_R_Forearm
              {
                OFFSET 30.6251 1.14441e-005 0
                CHANNELS 6 Xposition Yposition Zposition Zrotation Xrotation Yrotation
                JOINT Bip01_R_Hand
                {
                  OFFSET 31.2039 0 0
                  CHANNELS 6 Xposition Yposition Zposition Zrotation Xrotation Yrotation
                  JOINT Bip01_R_Finger0
                  {
                    OFFSET 22.1039 0.255862 -0.37902
                    CHANNELS 6 Xposition Yposition Zposition Zrotation Xrotation Yrotation
                    JOINT Bip01_R_Finger0Nub
                    {
                      OFFSET 12.0552 0 0
                      CHANNELS 6 Xposition Yposition Zposition Zrotation Xrotation Yrotation
                      End Site
                      {
                        OFFSET 0 0 0
                      }
                    }
                  }
                }
              }
            }
          }
          JOINT Bip01_L_Clavicle
          {
            OFFSET -17.9452 -11.3132 6.19281
            CHANNELS 6 Xposition Yposition Zposition Zrotation Xrotation Yrotation
            JOINT Bip01_L_UpperArm
            {
              OFFSET 17.444 0 1.14441e-005
              CHANNELS 6 Xposition Yposition Zposition Zrotation Xrotation Yrotation
              JOINT Bip01_L_Forearm
              {
                OFFSET 30.6251 0 0
                CHANNELS 6 Xposition Yposition Zposition Zrotation Xrotation Yrotation
                JOINT Bip01_L_Hand
                {
                  OFFSET 31.204 0 0
                  CHANNELS 6 Xposition Yposition Zposition Zrotation Xrotation Yrotation
                  JOINT Bip01_L_Finger0
                  {
                    OFFSET 22.1039 0.255856 0.379024
                    CHANNELS 6 Xposition Yposition Zposition Zrotation Xrotation Yrotation
                    JOINT Bip01_L_Finger0Nub
                    {
                      OFFSET 12.0552 0 0
                      CHANNELS 6 Xposition Yposition Zposition Zrotation Xrotation Yrotation
                      End Site
                      {
                        OFFSET 0 0 0
                      }
                    }
                  }
                }
              }
            }
          }
          JOINT Bip01_Neck1
          {
            OFFSET 14.9359 -0.0106278 0
            CHANNELS 6 Xposition Yposition Zposition Zrotation Xrotation Yrotation
            JOINT Bip01_Head
            {
              OFFSET 14.3578 0.505501 0
              CHANNELS 6 Xposition Yposition Zposition Zrotation Xrotation Yrotation
              JOINT BN_Ear_L_01
              {
                OFFSET 3.76994 -2.35629 12.3444
                CHANNELS 6 Xposition Yposition Zposition Zrotation Xrotation Yrotation
                End Site
                {
                  OFFSET 0 0 0
                }
              }
              JOINT BN_Ear_R_01
              {
                OFFSET 3.76995 -2.35622 -12.3442
                CHANNELS 6 Xposition Yposition Zposition Zrotation Xrotation Yrotation
                End Site
                {
                  OFFSET 0 0 0
                }
              }
              JOINT BN_Mouth_01
              {
                OFFSET 11.8395 10.8645 1.27e-005
                CHANNELS 6 Xposition Yposition Zposition Zrotation Xrotation Yrotation
                JOINT BN_Tongue_01
                {
                  OFFSET 9.73752 3.21674 1.016e-005
                  CHANNELS 6 Xposition Yposition Zposition Zrotation Xrotation Yrotation
                  JOINT BN_Tongue_02
                  {
                    OFFSET 9.04304 0.053505 0
                    CHANNELS 6 Xposition Yposition Zposition Zrotation Xrotation Yrotation
                    End Site
                    {
                      OFFSET 0 0 0
                    }
                  }
                }
                JOINT BN_Beard_01
                {
                  OFFSET 6.93466 -0.751793 0
                  CHANNELS 6 Xposition Yposition Zposition Zrotation Xrotation Yrotation
                  JOINT BN_Beard_02
                  {
                    OFFSET 13.0965 1.52588e-005 0
                    CHANNELS 6 Xposition Yposition Zposition Zrotation Xrotation Yrotation
                    End Site
                    {
                      OFFSET 0 0 0
                    }
                  }
                }
              }
              JOINT Bip01_HeadNub
              {
                OFFSET 25.6158 0 0
                CHANNELS 6 Xposition Yposition Zposition Zrotation Xrotation Yrotation
                End Site
                {
                  OFFSET 0 0 0
                }
              }
            }
          }
        }
      }
    }
  }
}
MOTION
Frames:	4
Frame Time:	0.0333333
-43.3099 84.8852 2.4095e-007 -27.3238 -87.7313 62.1224 0 0 0 -91.7793 -11.0969 -97.588 -18.6385 -9.591 0 1.0173 -11.1592 -179.769 20.9743 -9.9476e-014 0 20.6579 -8.26293 -7.37052 20.3014 6.67572e-006 -1.19016e-013 51.9481 -23.882 -31.9828 21.6394 -3.21865e-006 7.6294e-006 65.2016 12.7706 -46.0059 21.4606 -4.91658 -2.87813 1.01782 -2.70155 5.29076 -19.9917 5.96198 -15.8698 -76.2828 -17.65 -179.217 34.2647 3.8147e-006 1.90735e-006 -68.6633 3.24204e-006 9.61478e-006 20.4429 -3.8147e-006 5.72205e-006 62.9766 8.22856e-006 4.58648e-006 16.5673 -9.53674e-007 -1.90735e-006 -67.92 -10.3746 -17.9635 9.18786 6.94839 3.90847e-009 65.9042 -6.8727 -0.934084 1.01907 -7.10542e-014 1.90735e-006 -5.58783e-007 2.28717e-008 2.63555e-007 -23.1423 4.34914 18.1515 -99.7933 10.4544 -175.188 34.2647 5.72205e-006 -1.90735e-006 -64.5002 -9.20562e-006 -1.57412e-005 20.4429 -7.10543e-015 -3.55271e-015 36.9848 9.16967e-006 -5.69118e-006 16.5673 -1.90735e-006 1.90735e-006 -59.095 1.88944 11.4619 9.18784 6.9484 -1.86926e-006 125.474 -1.83359e-007 1.86486e-008 1.01907 -9.53675e-007 -1.06581e-014 -179.96 -8.22982e-006 1.69703e-005 39.3356 -0.0230103 0.000827908 -5.30587 0.0975289 3.63908 34.2782 -15.5923 -0.00130294 -21.7891 -3.28528 -1.14197 -11.7481 -17.3689 -6.96851 -158.218 -30.9365 112.799 17.444 -7.6294e-006 1.90735e-006 80.8905 69.33 -146.93 30.625 -4.26326e-014 -9.53674e-007 -81.7866 2.13931e-006 8.92393e-006 31.2039 -9.53676e-007 -9.53674e-007 143.989 81.8046 -78.2392 22.1039 0.25584 -0.37903 4.02882 -4.06224 15.2396 12.0552 -1.1921e-006 1.90735e-006 179.96 -9.62857e-006 1.73247e-005 -11.5012 -18.0793 5.39432 -158.33 13.9115 -108.089 17.444 -1.52588e-005 6.67572e-006 121.494 -78.1668 -171.766 30.6251 -7.62941e-006 -1.90735e-006 -55.1968 6.11166e-006 7.99775e-006 31.204 1.90735e-006 2.86102e-006 136.516 -84.8175 120.798 22.1039 0.255845 0.379066 4.94009 2.5512 10.7743 12.0552 -1.42109e-014 -5.68433e-014 -3.39179e-007 9.83535e-006 9.81909e-006 14.9334 -0.0105133 0.000302315 5.42252 3.66652 -3.13043 14.3578 0.50549 4.76339e-007 1.87985 2.63368 6.15225 3.76997 -2.35629 12.3444 -173.54 25.1308 -35.5781 3.76994 -2.35621 -12.3442 11.2864 27.38 154.066 11.8395 10.8646 1.92616e-008 -168.897 -0.0294495 -179.997 9.73753 3.21676 -0.00141476 -2.82949 -3.77662e-008 1.0176e-007 5.27074 0.746262 0.153591 5.17465 -0.0390446 -0.00292812 6.93467 -0.751778 0.00105333 -143.507 -3.15527 7.13224 13.0966 3.48793e-010 0.00796032 -18.8156 0.281586 -12.9268 25.6158 -1.52588e-005 -8.88179e-015 9.41103e-009 -1.31307e-008 -1.28027e-007 
-43.3099 86.095 2.41392e-007 -30.3007 -87.7419 60.0993 0 0 0 -91.9405 -12.8505 -97.022 -18.6385 -9.591 5.32907e-015 0.702877 -9.52555 -177.573 20.9743 -4.26326e-014 0 16.522 -5.32732 -6.33046 20.3014 6.67572e-006 -1.50102e-013 51.8538 -23.9429 -31.1207 21.6394 -3.21865e-006 7.6294e-006 69.2144 15.2662 -45.6284 21.329 -5.57666 -2.6491 0.325779 -2.25463 4.81037 -20.0288 6.26355 -15.9543 -83.6564 -17.6812 179.556 34.2647 3.8147e-006 1.90735e-006 -79.7208 1.83937e-006 1.00411e-005 20.4429 -3.8147e-006 5.72205e-006 64.4671 5.12585e-009 5.421e-007 16.5673 -9.53674e-007 -1.90735e-006 -63.774 -9.02038 -17.5663 9.18786 6.94839 3.60704e-009 68.364 -5.30348 -0.605714 1.01907 -7.10542e-014 1.90735e-006 -5.58783e-007 2.28717e-008 2.63555e-007 -22.8961 4.9168 18.1037 -100.482 9.8537 -175.489 34.2647 5.72205e-006 -1.90735e-006 -66.1828 -8.59355e-006 -1.59644e-005 20.4429 1.42109e-014 0 38.252 9.46375e-006 -5.18259e-006 16.5673 -1.90735e-006 1.90735e-006 -68.0324 0.162679 11.1049 9.18784 6.9484 -1.87247e-006 124.19 -1.10343e-007 4.02026e-008 1.01907 -9.53675e-007 0 -179.96 -8.22971e-006 1.69703e-005 39.3352 -0.0230103 0.000827908 -6.98506 -0.0839039 3.21167 34.2782 -15.5923 -0.00130294 -21.5871 -3.32595 -1.38218 -11.8402 -17.3228 -6.92733 -158.546 -29.126 113.37 17.444 -7.6294e-006 1.90735e-006 88.0568 68.4913 -155.189 30.625 -3.55272e-014 -9.53674e-007 -83.8476 1.80625e-006 8.99566e-006 31.2039 -9.53676e-007 -9.53674e-007 134.972 81.8541 -72.9675 22.1039 0.25584 -0.37903 3.50341 -4.57466 14.0862 12.0552 -1.1921e-006 1.90735e-006 179.96 -9.62856e-006 1.73245e-005 -11.5416 -18.0417 5.43386 -158.48 13.1467 -106.942 17.444 -1.52588e-005 6.67572e-006 127.767 -80.5929 -164.808 30.6251 -7.62941e-006 -1.90735e-006 -52.7752 6.5346e-006 7.76787e-006 31.204 1.90735e-006 2.86102e-006 141.539 -84.7935 130.163 22.1039 0.255845 0.379066 5.44165 2.07381 14.9458 12.0552 -3.55272e-014 -7.10541e-014 -3.39179e-007 9.83535e-006 9.81909e-006 14.9334 -0.0105133 0.000302315 3.69442 3.53738 -2.98845 14.3578 0.50549 4.76479e-007 2.0673 2.39183 6.71285 3.76997 -2.35629 12.3444 -171.219 23.7892 -36.8464 3.76994 -2.35621 -12.3442 13.8073 26.4974 152.712 11.8395 10.8646 1.54511e-008 -167.612 -0.0385742 -179.996 9.73753 3.21676 -0.00141476 -3.42073 -5.26882e-008 1.02287e-007 5.27074 0.746262 0.153591 8.27607 -0.0396334 -0.00416388 6.93467 -0.751778 0.00105333 -140.373 -3.4684 7.64569 13.0966 3.2832e-010 0.00796032 -20.3245 0.329303 -8.57919 25.6158 -1.52588e-005 -7.99361e-015 9.41103e-009 -1.31307e-008 -1.28027e-007 
-43.3099 86.9953 2.24314e-007 -33.3862 -87.8489 57.9824 0 0 0 -91.9991 -14.4346 -96.0535 -18.6385 -9.591 -1.77636e-015 0.128181 -7.75249 -175.51 20.9743 -1.42109e-014 0 11.7122 -2.00174 -4.94468 20.3014 6.67572e-006 -1.86073e-013 50.7001 -24.0504 -29.4493 21.6394 -3.21865e-006 7.6294e-006 71.3765 17.8985 -44.1429 21.2095 -6.16928 -2.27103 -0.394049 -1.60177 4.06078 -20.1603 6.43542 -16.1253 -91.4131 -17.349 178.076 34.2647 3.8147e-006 1.90735e-006 -90.2554 2.45951e-007 1.02415e-005 20.4429 -3.8147e-006 5.72205e-006 65.903 8.26276e-006 4.34455e-006 16.5673 -9.53674e-007 -1.90735e-006 -58.1672 -8.22832 -16.7608 9.18786 6.94839 3.49963e-009 70.8269 -3.71029 -0.344369 1.01907 -4.26325e-014 1.90735e-006 -5.58783e-007 2.28717e-008 2.63555e-007 -22.5819 5.47748 17.9803 -101.157 8.97529 -175.824 34.2647 5.72205e-006 -1.90735e-006 -67.0871 -8.16866e-006 -1.60774e-005 20.4429 -2.13163e-014 -7.10543e-015 38.5149 8.51572e-006 -6.22051e-006 16.5673 -1.90735e-006 1.90735e-006 -75.4142 -0.995858 10.1999 9.18784 6.9484 -1.87305e-006 120.568 -3.59291e-008 4.42643e-008 1.01907 -9.53675e-007 3.55271e-015 -179.96 -8.22963e-006 1.69702e-005 39.3348 -0.0230103 0.000827908 -8.23804 -0.207965 2.62925 34.2782 -15.5923 -0.00130294 -20.7351 -3.45553 -1.67056 -12.1372 -17.1315 -6.88819 -159.541 -26.8616 113.574 17.444 -7.6294e-006 1.90735e-006 95.7385 67.7411 -164.501 30.625 -7.10544e-015 -9.53674e-007 -82.7274 1.97743e-006 8.95664e-006 31.2039 -9.53676e-007 -9.53674e-007 126.129 81.5508 -71.2676 22.1039 0.25584 -0.37903 2.78376 -4.98077 11.5714 12.0552 -1.1921e-006 1.90735e-006 179.96 -9.62853e-006 1.73246e-005 -11.7761 -17.8783 5.46967 -159.269 12.6596 -105.935 17.444 -1.52588e-005 6.67572e-006 141.846 -82.3928 -150.128 30.6251 -7.62941e-006 -1.90735e-006 -49.3502 7.05232e-006 7.40754e-006 31.204 1.90735e-006 2.86102e-006 145.97 -84.7515 139.34 22.1039 0.255845 0.379066 5.92813 1.65067 18.5279 12.0552 -7.10545e-015 -7.10541e-015 -3.39179e-007 9.83535e-006 9.81909e-006 14.9334 -0.0105133 0.000302315 1.27425 3.15821 -2.68073 14.3578 0.50549 4.76668e-007 1.75548 2.10697 7.07507 3.76997 -2.35629 12.3444 -169.563 22.8425 -37.8362 3.76994 -2.35621 -12.3442 15.7541 25.8085 151.654 11.8395 10.8646 1.03042e-008 -166.347 -0.0351715 -179.996 9.73753 3.21676 -0.00141477 -3.95419 -6.76568e-008 1.02065e-007 5.27074 0.746262 0.153591 11.4039 -0.0404551 -0.00523569 6.93467 -0.751778 0.00105333 -136.918 -3.84969 8.18362 13.0966 2.9876e-010 0.00796032 -21.6347 0.35862 -3.23674 25.6158 -1.52588e-005 0 9.41103e-009 -1.31307e-008 -1.28027e-007 
-43.3099 87.5808 2.54772e-007 -36.5519 -88.0244 55.7097 0 0 0 -91.9596 -15.8122 -94.7873 -18.6385 -9.591 2.66454e-015 -0.607573 -5.98205 -173.685 20.9743 -5.68434e-014 1.77636e-015 6.50208 1.37478 -3.31183 20.3014 6.67572e-006 -2.02505e-013 48.6397 -24.1868 -27.1246 21.6394 -3.21865e-006 7.6294e-006 71.6233 20.5526 -41.675 21.1012 -6.67976 -1.7901 -1.06579 -0.816281 3.12647 -20.3602 6.503 -16.3561 -98.8148 -16.7849 176.594 34.2647 3.8147e-006 1.90735e-006 -98.435 -1.17858e-006 1.02003e-005 20.4429 -3.8147e-006 5.72205e-006 67.1371 8.33292e-006 4.18644e-006 16.5673 -9.53674e-007 -1.90735e-006 -52.4875 -8.03731 -15.868 9.18786 6.94839 4.43933e-009 72.5929 -2.55691 -0.196312 1.01907 -4.26325e-014 1.90735e-006 -5.58783e-007 2.28717e-008 2.63555e-007 -22.2258 6.01527 17.7944 -101.888 8.24598 -176.372 34.2647 5.72205e-006 -1.90735e-006 -67.5405 -7.89766e-006 -1.61326e-005 20.4429 1.42109e-014 7.10543e-015 38.1373 8.5134e-006 -6.07385e-006 16.5673 -1.90735e-006 1.90735e-006 -81.1598 -1.58038 9.11818 9.18784 6.9484 -1.87366e-006 115.448 4.48779e-008 4.85515e-008 1.01907 -9.53675e-007 -3.55271e-015 -179.96 -8.22961e-006 1.69702e-005 39.3344 -0.0230103 0.000827908 -9.06714 -0.284107 1.94564 34.2782 -15.5923 -0.00130294 -19.4335 -3.63977 -1.9795 -12.5701 -16.833 -6.84698 -160.964 -24.0278 113.374 17.444 -7.6294e-006 1.90735e-006 103.552 66.9276 -174.806 30.625 7.10544e-015 -9.53674e-007 -77.8518 2.71515e-006 8.75018e-006 31.2039 -9.53676e-007 -9.53674e-007 118.138 80.9748 -74.7111 22.1039 0.25584 -0.37903 1.7525 -5.25423 7.14693 12.0552 -1.1921e-006 1.90735e-006 179.96 -9.62854e-006 1.73252e-005 -12.1426 -17.6198 5.50629 -160.501 12.6257 -105.169 17.444 -1.52588e-005 6.67572e-006 163.497 -82.7217 -128.148 30.6251 -7.62941e-006 -1.90735e-006 -44.8093 7.62909e-006 6.88077e-006 31.204 1.90735e-006 2.86102e-006 149.446 -84.7872 147.939 22.1039 0.255845 0.379066 6.333 1.31435 21.1952 12.0552 -2.84218e-014 -2.13162e-014 -3.39179e-007 9.83535e-006 9.81909e-006 14.9334 -0.0105133 0.000302315 -1.57209 2.58513 -2.27712 14.3578 0.50549 4.76875e-007 1.09118 1.8073 7.24549 3.76997 -2.35629 12.3444 -168.497 22.2254 -38.5324 3.76994 -2.35621 -12.3442 16.9779 25.3687 151.001 11.8395 10.8646 4.61752e-009 -165.195 -0.0295105 -179.996 9.73753 3.21676 -0.00141477 -4.47051 -8.26033e-008 1.01124e-007 5.27074 0.746262 0.153591 14.0694 -0.0383966 0.00566178 6.93467 -0.751778 0.00105333 -133.504 -4.23451 8.73229 13.0966 2.61478e-010 0.00796032 -22.7149 0.382132 2.449 25.6159 -1.52588e-005 -1.77636e-015 9.41103e-009 -1.31307e-008 -1.28027e-007 
